<svg id="visual" viewBox="0 0 2560 1440" width="2560" height="1440" xmlns="http://www.w3.org/2000/svg" xmlns:xlink="http://www.w3.org/1999/xlink" version="1.1"><path d="M0 73L151 102L301 102L452 44L602 73L753 44L904 73L1054 73L1205 44L1355 44L1506 59L1656 73L1807 102L1958 87L2108 87L2259 59L2409 87L2560 87L2560 0L2409 0L2259 0L2108 0L1958 0L1807 0L1656 0L1506 0L1355 0L1205 0L1054 0L904 0L753 0L602 0L452 0L301 0L151 0L0 0Z" fill="#000000"></path><path d="M0 116L151 188L301 174L452 73L602 159L753 159L904 159L1054 102L1205 87L1355 131L1506 131L1656 131L1807 203L1958 159L2108 145L2259 174L2409 203L2560 145L2560 85L2409 85L2259 57L2108 85L1958 85L1807 100L1656 71L1506 57L1355 42L1205 42L1054 71L904 71L753 42L602 71L452 42L301 100L151 100L0 71Z" fill="#00070f"></path><path d="M0 347L151 303L301 404L452 217L602 231L753 390L904 246L1054 260L1205 188L1355 246L1506 447L1656 347L1807 419L1958 375L2108 318L2259 505L2409 462L2560 347L2560 143L2409 201L2259 172L2108 143L1958 157L1807 201L1656 129L1506 129L1355 129L1205 85L1054 100L904 157L753 157L602 157L452 71L301 172L151 186L0 114Z" fill="#060c13"></path><path d="M0 404L151 361L301 505L452 318L602 318L753 433L904 275L1054 347L1205 260L1355 318L1506 519L1656 404L1807 462L1958 419L2108 390L2259 548L2409 491L2560 447L2560 345L2409 460L2259 503L2108 316L1958 373L1807 417L1656 345L1506 445L1355 244L1205 186L1054 258L904 244L753 388L602 229L452 215L301 402L151 301L0 345Z" fill="#0c1117"></path><path d="M0 476L151 462L301 548L452 462L602 375L753 491L904 332L1054 404L1205 361L1355 419L1506 620L1656 447L1807 548L1958 548L2108 447L2259 577L2409 534L2560 563L2560 445L2409 489L2259 546L2108 388L1958 417L1807 460L1656 402L1506 517L1355 316L1205 258L1054 345L904 273L753 431L602 316L452 316L301 503L151 359L0 402Z" fill="#10151a"></path><path d="M0 908L151 793L301 822L452 678L602 591L753 836L904 678L1054 807L1205 591L1355 591L1506 937L1656 851L1807 923L1958 865L2108 807L2259 1023L2409 793L2560 865L2560 561L2409 532L2259 575L2108 445L1958 546L1807 546L1656 445L1506 618L1355 417L1205 359L1054 402L904 330L753 489L602 373L452 460L301 546L151 460L0 474Z" fill="#14181d"></path><path d="M0 1052L151 1023L301 1052L452 966L602 1081L753 1067L904 1023L1054 995L1205 1196L1355 1023L1506 1167L1656 966L1807 1052L1958 1081L2108 995L2259 1182L2409 1038L2560 1023L2560 863L2409 791L2259 1021L2108 805L1958 863L1807 921L1656 849L1506 935L1355 589L1205 589L1054 805L904 676L753 834L602 589L452 676L301 820L151 791L0 906Z" fill="#171b20"></path><path d="M0 1081L151 1124L301 1124L452 1023L602 1124L753 1167L904 1081L1054 1110L1205 1268L1355 1095L1506 1196L1656 1009L1807 1081L1958 1182L2108 1095L2259 1211L2409 1124L2560 1124L2560 1021L2409 1036L2259 1180L2108 993L1958 1079L1807 1050L1656 964L1506 1165L1355 1021L1205 1194L1054 993L904 1021L753 1065L602 1079L452 964L301 1050L151 1021L0 1050Z" fill="#1a1f24"></path><path d="M0 1239L151 1254L301 1254L452 1196L602 1254L753 1239L904 1153L1054 1225L1205 1326L1355 1167L1506 1239L1656 1167L1807 1225L1958 1311L2108 1239L2259 1340L2409 1167L2560 1268L2560 1122L2409 1122L2259 1209L2108 1093L1958 1180L1807 1079L1656 1007L1506 1194L1355 1093L1205 1266L1054 1108L904 1079L753 1165L602 1122L452 1021L301 1122L151 1122L0 1079Z" fill="#1d2227"></path><path d="M0 1383L151 1311L301 1412L452 1369L602 1297L753 1297L904 1297L1054 1311L1205 1398L1355 1297L1506 1297L1656 1369L1807 1283L1958 1369L2108 1369L2259 1398L2409 1340L2560 1369L2560 1266L2409 1165L2259 1338L2108 1237L1958 1309L1807 1223L1656 1165L1506 1237L1355 1165L1205 1324L1054 1223L904 1151L753 1237L602 1252L452 1194L301 1252L151 1252L0 1237Z" fill="#21262b"></path><path d="M0 1441L151 1441L301 1441L452 1441L602 1441L753 1441L904 1441L1054 1441L1205 1441L1355 1441L1506 1441L1656 1441L1807 1441L1958 1441L2108 1441L2259 1441L2409 1441L2560 1441L2560 1367L2409 1338L2259 1396L2108 1367L1958 1367L1807 1281L1656 1367L1506 1295L1355 1295L1205 1396L1054 1309L904 1295L753 1295L602 1295L452 1367L301 1410L151 1309L0 1381Z" fill="#24292e"></path></svg>